<?xml version="1.0" encoding="UTF-8"?>
<svg id="_레이어_2" data-name="레이어 2" xmlns="http://www.w3.org/2000/svg" viewBox="0 0 451.41 152.04">
  <defs>
    <style>
      .cls-1 {
        fill: #fff;
      }
    </style>
  </defs>
  <g id="_레이어_1-2" data-name="레이어 1">
    <g>
      <g>
        <path class="cls-1" d="M287.83,22.38c13.38,0,24.27,10.89,24.27,24.27v6.26c0,13.38-10.89,24.27-24.27,24.27h-25.02V22.38h25.02M287.83.05h-47.35v99.45h47.35c25.73,0,46.59-20.86,46.59-46.59v-6.26C334.42,20.91,313.56.05,287.83.05h0Z"/>
        <polygon class="cls-1" points="331.17 99.5 379.26 .05 403.31 .05 451.41 99.5 424.62 99.5 391.29 33.03 357.97 99.5 331.17 99.5"/>
        <path class="cls-1" d="M206.03,99.56c-5.72,0-11.22-2.49-15.1-7.1l-.2-.24-45.6-56.98v64.27h-25.24V19.88c0-8.44,5.12-15.76,13.05-18.65,7.93-2.89,16.56-.59,21.99,5.87l.2.24,45.6,56.98V13.85c0-7.62,6.18-13.8,13.8-13.8h11.44v79.28c0,8.35-5.04,15.98-12.86,18.92-2.33.88-4.73,1.3-7.09,1.3Z"/>
        <g>
          <polygon class="cls-1" points="46.48 61.82 46.48 61.82 46.48 61.82 46.48 61.82"/>
          <polygon class="cls-1" points="109.09 99.5 63.13 44.75 106.71 .05 75.15 .05 33.57 43.11 33.57 43.11 17.18 60.31 28.06 45.38 28.06 .05 0 .05 0 99.5 28.06 99.5 28.06 80.72 46.48 61.82 46.48 61.82 46.48 61.82 46.48 61.82 77.79 99.5 109.09 99.5"/>
        </g>
      </g>
      <g>
        <path class="cls-1" d="M58.44,122.43h6.12v11.13h.36l8.75-11.13h7.28l-9.33,11.64,9.47,14.44h-7.35l-6.59-10.34-2.59,3.21v7.13h-6.12v-26.08Z"/>
        <path class="cls-1" d="M107.33,137.81h-12.03v-4.68h12.03v4.68Z"/>
        <path class="cls-1" d="M153.11,140.72h-6.63v11.24h-5.26v-11.24h-6.38v11.24h-5.19v-11.24h-6.7v-4.14h30.15v4.14ZM149.8,133.2h-23.23v-12.86h5.19v8.72h18.05v4.14Z"/>
        <path class="cls-1" d="M184.85,124.69h-10.55v5.76c5.8-.05,9.26-.27,13.04-1.04l.5,3.93c-4.32.94-8.36,1.19-15.81,1.15h-2.92v-13.87h15.74v4.07ZM195.01,145.95h-17.18v1.84h17.98v4h-23.09v-9.55h17.22v-1.62h-17.22v-3.96h22.3v9.29ZM195.01,135.43h-5.15v-16.53h5.15v16.53Z"/>
        <path class="cls-1" d="M250.02,132.98c-.04,7.35-3.75,11.92-8.83,11.92s-8.9-4.57-8.86-11.92c-.04-7.24,3.71-11.82,8.86-11.82s8.79,4.57,8.83,11.82ZM237.38,132.98c-.04,4.79,1.51,7.2,3.82,7.2s3.82-2.41,3.85-7.2c-.04-4.72-1.51-7.13-3.85-7.13s-3.85,2.41-3.82,7.13ZM258.49,131.14h4.68v4.29h-4.68v16.53h-5.19v-33.07h5.19v12.25Z"/>
        <path class="cls-1" d="M279.09,147.1l-2.81-3.89c5.26-2.63,8.39-5.49,10.23-8.9l-9.26.86-.58-4.43,11.38-.65c.31-1.24.49-2.58.61-4h-10.23v-4.11h15.38c0,10.41-2.23,18.8-14.73,25.11ZM302.8,131.32h4.43v4.25h-4.43v16.28h-5.19v-32.96h5.19v12.43Z"/>
        <path class="cls-1" d="M334.5,126.68h-7.64v13.8c3.19-.02,5.76-.2,8.68-.79l.36,4.21c-3.71.72-7.06.86-11.78.86h-2.34v-22.23h12.72v4.14ZM342.53,150.52h-4.79v-15.53h-5.51v-4.21h5.51v-11.38h4.79v31.12ZM349.63,151.96h-4.97v-33.07h4.97v33.07Z"/>
        <path class="cls-1" d="M382.95,144.22h-16.21v-22.41h16.21v22.41ZM371.93,140.11h5.98v-14.26h-5.98v14.26ZM392.97,152.04h-5.22v-33.14h5.22v33.14Z"/>
      </g>
    </g>
  </g>
</svg>