<?xml version="1.0" encoding="utf-8"?>
<!-- Generator: Adobe Illustrator 23.0.3, SVG Export Plug-In . SVG Version: 6.00 Build 0)  -->
<svg version="1.1" id="Layer_1" xmlns="http://www.w3.org/2000/svg" xmlns:xlink="http://www.w3.org/1999/xlink" x="0px" y="0px"
	 viewBox="0 0 439.9 114.4" style="enable-background:new 0 0 439.9 114.4;" xml:space="preserve">
<style type="text/css">
	.st0{fill:#FFFFFF;}
	.st1{fill:#003763;}
	.st2{fill:#E4022D;}
</style>
<g>
	<path class="st0" d="M186,73.4V60.7h4.9v12.7h18v4.4h-37.6v-4.4L186,73.4L186,73.4z M200.8,66.2V46.6h-26.4v-4.5h31.5v24.1H200.8z"
		/>
	<path class="st0" d="M221.3,59v-3.8h4.7V59h11.3v-3.8h4.7V59h8.5v4.3h-37.5V59H221.3z M241.3,73.8c0,1.2-0.3,2.4-0.8,3.5
		s-1.2,2-2.1,2.8c-0.9,0.8-1.9,1.5-3,2c-1.2,0.5-2.4,0.7-3.7,0.7s-2.6-0.3-3.8-0.7c-1.2-0.5-2.2-1.2-3.1-2c-0.9-0.8-1.5-1.7-2.1-2.8
		c-0.5-1.1-0.8-2.2-0.8-3.5s0.3-2.4,0.8-3.5c0.5-1.1,1.2-2,2.1-2.9c0.9-0.8,1.9-1.5,3.1-1.9c1.2-0.5,2.4-0.7,3.8-0.7
		c1.3,0,2.6,0.2,3.7,0.7s2.2,1.1,3,1.9c0.9,0.8,1.6,1.8,2.1,2.9C241,71.4,241.3,72.6,241.3,73.8z M241.2,46.8c0,1.2-0.3,2.4-0.8,3.4
		c-0.5,1.1-1.2,2-2.1,2.8c-0.8,0.8-1.8,1.4-3,1.9c-1.2,0.5-2.4,0.7-3.7,0.7c-1.3,0-2.6-0.2-3.7-0.7c-1.2-0.5-2.2-1.1-3-1.9
		c-0.9-0.8-1.6-1.8-2.1-2.8s-0.8-2.2-0.8-3.4c0-1.2,0.3-2.3,0.8-3.4c0.5-1.1,1.2-2,2.1-2.9c0.8-0.8,1.8-1.4,3-1.9
		c1.2-0.5,2.4-0.7,3.7-0.7s2.6,0.3,3.7,0.7c1.2,0.5,2.1,1.1,3,1.9c0.9,0.8,1.6,1.8,2.1,2.9S241.2,45.7,241.2,46.8z M236.3,73.7
		c0-1.3-0.5-2.4-1.4-3.3c-0.9-0.9-2.1-1.3-3.4-1.3s-2.4,0.4-3.3,1.3c-0.9,0.9-1.4,2-1.4,3.3s0.5,2.4,1.4,3.3c0.9,0.9,2,1.4,3.3,1.4
		s2.4-0.5,3.4-1.4C235.9,76.1,236.3,75,236.3,73.7z M236.3,46.8c0-1.2-0.5-2.3-1.4-3.2s-2-1.4-3.3-1.4s-2.4,0.5-3.3,1.4
		c-0.9,0.9-1.4,2-1.4,3.2c0,1.3,0.4,2.3,1.4,3.3c0.9,0.9,2,1.4,3.3,1.4s2.4-0.5,3.3-1.4C235.8,49.2,236.3,48.1,236.3,46.8z"/>
	<path class="st0" d="M292.1,73.4v4.5h-37.6v-4.5h16.2v-9.8h-13.2V41.8h5.1V59h27v4.5h-13.8v9.8H292.1z"/>
	<path class="st0" d="M313,58.2v-3.8h-13.2V40.5h31.5v4.3h-26.5v5.4h26.6v4.3h-13.4v3.8h16.3v4.3h-37.5v-4.3L313,58.2L313,58.2z
		 M325.6,73.1c0,1.3-0.3,2.5-0.8,3.6c-0.5,1.1-1.3,2.1-2.1,2.9c-1,0.8-2,1.5-3.2,2c-1.2,0.5-2.5,0.8-3.9,0.8s-2.7-0.3-3.9-0.8
		c-1.2-0.5-2.3-1.2-3.2-2c-0.9-0.8-1.6-1.8-2.1-2.9c-0.5-1.1-0.8-2.4-0.8-3.6s0.3-2.5,0.8-3.6s1.2-2.1,2.1-2.9c1-0.8,2-1.5,3.2-2
		c1.2-0.5,2.5-0.8,3.9-0.8s2.7,0.3,3.9,0.8c1.2,0.5,2.3,1.2,3.2,2c0.9,0.8,1.6,1.8,2.1,2.9C325.4,70.6,325.6,71.8,325.6,73.1z
		 M320.8,73c0-1.4-0.5-2.6-1.5-3.6S317,68,315.6,68c-1.4,0-2.6,0.5-3.6,1.5s-1.5,2.2-1.5,3.6c0,1.4,0.5,2.6,1.5,3.6
		c1,1,2.2,1.5,3.6,1.5s2.6-0.5,3.6-1.5C320.2,75.6,320.8,74.4,320.8,73z"/>
	<path class="st0" d="M339.6,65.8h37.5v4.5h-16.3v10.5h-5.1V70.3h-16.2V65.8z M347.6,45.9h21.5v-5.2h5v19.7h-31.5V40.7h5V45.9z
		 M369.1,50.3h-21.5v5.6h21.5V50.3z"/>
</g>
<g>
	<g>
		<g>
			<g>
				<g>
					<g>
						<path class="st1" d="M120.7,54.9c-8.6-5.9-19.7-3.5-25.4,5.3c-4.8,7.4-12.1,8.3-15,8.3c-9.2,0-15.5-6.5-17.4-13.2h0
							c0-0.1,0-0.1,0-0.2c0-0.1,0-0.2-0.1-0.2c-0.7-2.8-0.9-4.1-0.9-7.1c0-16,16.4-33.9,40.2-33.9c24.3,0,38.2,18.5,41.7,28.8
							c-0.1-0.2-0.1-0.4-0.2-0.5C136.7,22,117.6,7.6,95.2,7.6C67,7.6,44.1,30.5,44.1,58.7c0,25.2,18.2,46.8,43.4,46.8
							c20.1,0,33.7-11.3,39.9-26.8C130.8,70.2,128.4,60.2,120.7,54.9z"/>
					</g>
					<g>
						<path class="st2" d="M144.1,43.7c-3-10-17-29.7-42.1-29.7c-23.7,0-40.2,17.9-40.2,33.9c0,3,0.2,4.3,0.9,7.1
							c-0.3-1.2-0.5-2.5-0.5-3.7C62.3,34.6,79,23,96.2,23c23.3,0,42.1,18.9,42.1,42.1c0,18.3-10.5,34-25.8,41.6l0,0
							c19.7-7.1,33.7-26,33.7-48.1C146.3,53.5,145.6,48.9,144.1,43.7z"/>
					</g>
				</g>
			</g>
		</g>
	</g>
</g>
</svg>
